<?xml version="1.0" encoding="UTF-8" standalone="no"?>
<svg
   xmlns:dc="http://purl.org/dc/elements/1.1/"
   xmlns:cc="http://creativecommons.org/ns#"
   xmlns:rdf="http://www.w3.org/1999/02/22-rdf-syntax-ns#"
   xmlns:svg="http://www.w3.org/2000/svg"
   xmlns="http://www.w3.org/2000/svg"
   id="svg8"
   version="1.1"
   viewBox="0 0 26.458335 26.458329"
   height="26.458328mm"
   width="26.458334mm">
  <defs
     id="defs2" />
  <metadata
     id="metadata5">
    <rdf:RDF>
      <cc:Work
         rdf:about="">
        <dc:format>image/svg+xml</dc:format>
        <dc:type
           rdf:resource="http://purl.org/dc/dcmitype/StillImage" />
        <dc:title></dc:title>
        <dc:title></dc:title>
      </cc:Work>
    </rdf:RDF>
  </metadata>
  <g
     transform="translate(1.2121008e-4,-270.54226)"
     id="layer1">
    <path
       id="path3717"
       d="m 13.22904,270.56726 a 13.204147,13.204261 0 0 0 -13.20416107,13.20428 13.204147,13.204261 0 0 0 9.5708e-4,0.0261 13.204147,13.204261 0 0 1 13.17736399,13.17693 13.204147,13.204261 0 0 0 0.02585,10e-4 13.204147,13.204261 0 0 0 0.02625,-10e-4 13.204147,13.204261 0 0 1 13.176954,-13.17707 13.204147,13.204261 0 0 0 9.59e-4,-0.0258 13.204147,13.204261 0 0 0 -13.204163,-13.20428 z"
       style="fill:none;fill-opacity:1;stroke:#000000;stroke-width:0.05000028;stroke-miterlimit:4;stroke-dasharray:none;stroke-opacity:1" />
  </g>
</svg>
